<?xml version="1.0" encoding="UTF-8"?>
<svg xmlns="http://www.w3.org/2000/svg" xmlns:xlink="http://www.w3.org/1999/xlink" width="120px" height="42px" viewBox="0 0 120 42" version="1.1">
<g id="surface1">
<path style=" stroke:none;fill-rule:nonzero;fill:rgb(84.705883%,9.803922%,58.431375%);fill-opacity:1;" d="M 58.351562 12.015625 C 56.929688 11.003906 55.117188 10.171875 52.90625 9.515625 C 52.722656 9.457031 52.613281 9.347656 52.625 9.230469 C 52.699219 8.621094 52.734375 7.648438 53.152344 6.882812 C 54.300781 4.75 56.230469 2.886719 58.9375 1.300781 C 59.035156 1.242188 59.167969 1.210938 59.308594 1.210938 C 59.445312 1.210938 59.582031 1.242188 59.675781 1.300781 C 63.449219 3.484375 65.878906 5.933594 66.28125 8.960938 C 66.296875 9.101562 66.160156 9.234375 65.933594 9.289062 C 63.421875 9.898438 61.105469 10.8125 58.984375 12.03125 C 58.902344 12.082031 58.78125 12.105469 58.660156 12.101562 C 58.542969 12.101562 58.429688 12.066406 58.351562 12.015625 Z M 58.351562 12.015625 "/>
<path style=" stroke:none;fill-rule:nonzero;fill:rgb(84.705883%,9.803922%,58.431375%);fill-opacity:1;" d="M 67.863281 8.636719 L 67.476562 6.816406 L 70.652344 5.726562 C 70.722656 5.703125 70.8125 5.703125 70.886719 5.722656 C 70.964844 5.746094 71.015625 5.789062 71.027344 5.835938 L 71.539062 8.246094 C 71.554688 8.316406 71.519531 8.386719 71.445312 8.441406 C 71.367188 8.496094 71.257812 8.535156 71.132812 8.542969 L 68.113281 8.75 C 68.054688 8.753906 67.996094 8.746094 67.949219 8.722656 C 67.902344 8.703125 67.871094 8.671875 67.863281 8.636719 Z M 67.863281 8.636719 "/>
<path style=" stroke:none;fill-rule:nonzero;fill:rgb(84.705883%,9.803922%,58.431375%);fill-opacity:1;" d="M 47.492188 6.046875 C 47.5 5.988281 47.554688 5.9375 47.640625 5.910156 C 47.722656 5.878906 47.828125 5.871094 47.921875 5.890625 L 50.980469 6.519531 C 51.214844 6.570312 51.363281 6.703125 51.335938 6.84375 L 51.019531 8.570312 C 51 8.6875 50.882812 8.789062 50.707031 8.851562 C 50.53125 8.914062 50.3125 8.929688 50.121094 8.886719 L 47.414062 8.332031 C 47.222656 8.292969 47.101562 8.183594 47.121094 8.066406 Z M 47.492188 6.046875 "/>
<path style=" stroke:none;fill-rule:nonzero;fill:rgb(84.705883%,9.803922%,58.431375%);fill-opacity:1;" d="M 43.867188 9.480469 C 47.597656 9.511719 50.980469 10.027344 54.019531 11.023438 C 55.3125 11.453125 56.472656 12.125 57.503906 13.042969 C 57.601562 13.132812 57.609375 13.242188 57.527344 13.339844 C 56.433594 14.589844 55.65625 15.957031 55.195312 17.445312 C 55.179688 17.492188 55.128906 17.535156 55.054688 17.5625 C 54.980469 17.585938 54.890625 17.59375 54.804688 17.578125 C 53.558594 17.363281 52.359375 17.027344 51.207031 16.574219 C 49.984375 16.09375 48.996094 15.59375 48.238281 15.074219 C 46.042969 13.585938 44.484375 11.792969 43.5625 9.695312 C 43.542969 9.644531 43.5625 9.589844 43.625 9.546875 C 43.683594 9.503906 43.773438 9.480469 43.867188 9.480469 Z M 43.867188 9.480469 "/>
<path style=" stroke:none;fill-rule:nonzero;fill:rgb(84.705883%,9.803922%,58.431375%);fill-opacity:1;" d="M 56.699219 18.054688 C 57.1875 17.089844 57.773438 16.0625 58.460938 14.976562 C 60.28125 12.097656 63.84375 10.394531 69.140625 9.871094 C 70.039062 9.78125 71.824219 9.707031 74.488281 9.648438 C 74.566406 9.648438 74.644531 9.667969 74.691406 9.699219 C 74.742188 9.734375 74.761719 9.78125 74.746094 9.824219 C 72.777344 14.976562 67.21875 18.757812 56.984375 18.289062 C 56.886719 18.285156 56.800781 18.257812 56.742188 18.210938 C 56.6875 18.167969 56.671875 18.109375 56.699219 18.054688 Z M 56.699219 18.054688 "/>
<path style=" stroke:none;fill-rule:nonzero;fill:rgb(84.705883%,9.803922%,58.431375%);fill-opacity:1;" d="M 83.480469 15.476562 C 83.554688 15.5 83.597656 15.546875 83.59375 15.59375 C 83.59375 15.644531 83.546875 15.6875 83.476562 15.710938 C 78.410156 17.457031 72.667969 18.585938 66.867188 18.265625 C 66.792969 18.261719 66.734375 18.230469 66.71875 18.1875 C 66.707031 18.148438 66.746094 18.105469 66.8125 18.085938 C 70.5625 17.078125 72.574219 15.398438 74.589844 13.339844 C 74.679688 13.25 74.863281 13.207031 75.03125 13.238281 C 77.988281 13.75 80.804688 14.496094 83.480469 15.476562 Z M 83.480469 15.476562 "/>
<path style=" stroke:none;fill-rule:nonzero;fill:rgb(84.705883%,9.803922%,58.431375%);fill-opacity:1;" d="M 52.996094 18.210938 C 47.023438 18.449219 41.625 17.574219 36.757812 15.71875 C 36.667969 15.6875 36.617188 15.628906 36.613281 15.570312 C 36.609375 15.507812 36.65625 15.449219 36.742188 15.410156 C 38.929688 14.4375 41.339844 13.78125 43.96875 13.445312 C 44.152344 13.425781 44.339844 13.472656 44.425781 13.570312 C 46.394531 15.78125 49.25 17.328125 52.996094 18.210938 Z M 52.996094 18.210938 "/>
<path style=" stroke:none;fill-rule:nonzero;fill:rgb(19.215687%,53.333336%,34.901962%);fill-opacity:1;" d="M 37.128906 26.976562 C 37.441406 26.976562 37.722656 26.980469 37.964844 26.992188 C 38.140625 27 38.296875 27.066406 38.359375 27.160156 L 43.980469 35.898438 C 44.027344 35.972656 44.011719 36.050781 43.933594 36.113281 C 43.859375 36.175781 43.734375 36.210938 43.601562 36.210938 L 42.5 36.210938 C 42.265625 36.210938 42.054688 36.128906 41.976562 36 L 40.476562 33.679688 C 40.398438 33.550781 40.191406 33.464844 39.953125 33.457031 C 39.632812 33.449219 38.691406 33.449219 37.128906 33.449219 C 35.5625 33.449219 34.621094 33.449219 34.304688 33.457031 C 34.066406 33.464844 33.859375 33.550781 33.777344 33.679688 L 32.28125 36 C 32.203125 36.128906 31.992188 36.210938 31.753906 36.210938 L 30.65625 36.210938 C 30.523438 36.210938 30.398438 36.175781 30.320312 36.113281 C 30.246094 36.050781 30.226562 35.972656 30.273438 35.898438 L 35.898438 27.160156 C 35.960938 27.066406 36.113281 27 36.292969 26.992188 C 36.539062 26.980469 36.816406 26.976562 37.128906 26.976562 Z M 37.46875 29.09375 C 37.417969 29.011719 37.28125 28.957031 37.125 28.957031 C 36.972656 28.957031 36.832031 29.011719 36.78125 29.09375 L 34.691406 32.355469 C 34.671875 32.386719 34.679688 32.425781 34.71875 32.453125 C 34.757812 32.484375 34.816406 32.503906 34.882812 32.503906 L 39.355469 32.503906 C 39.425781 32.503906 39.492188 32.484375 39.53125 32.453125 C 39.570312 32.421875 39.582031 32.378906 39.558594 32.34375 Z M 37.46875 29.09375 "/>
<path style=" stroke:none;fill-rule:nonzero;fill:rgb(19.215687%,53.333336%,34.901962%);fill-opacity:1;" d="M 53.675781 36.917969 C 53.691406 37.007812 53.808594 37.078125 53.960938 37.09375 C 54.117188 37.105469 54.265625 37.054688 54.324219 36.972656 L 60.574219 27.210938 C 60.667969 27.0625 60.914062 26.964844 61.195312 26.964844 L 62.359375 26.964844 C 62.46875 26.964844 62.574219 26.996094 62.640625 27.046875 C 62.703125 27.097656 62.71875 27.164062 62.679688 27.226562 L 55.324219 38.722656 C 55.132812 39.015625 54.644531 39.210938 54.09375 39.210938 C 53.542969 39.210938 53.054688 39.015625 52.867188 38.726562 L 45.398438 27.125 C 45.375 27.085938 45.382812 27.046875 45.421875 27.015625 C 45.460938 26.984375 45.527344 26.964844 45.59375 26.964844 L 47.230469 26.964844 C 47.378906 26.964844 47.515625 27.019531 47.5625 27.097656 L 53.625 36.613281 C 53.636719 36.632812 53.644531 36.65625 53.648438 36.679688 Z M 53.675781 36.917969 "/>
<path style=" stroke:none;fill-rule:nonzero;fill:rgb(19.215687%,53.333336%,34.901962%);fill-opacity:1;" d="M 82.839844 37.355469 C 86.640625 36.535156 90.839844 37.570312 93.820312 37.882812 C 96.480469 38.164062 99.046875 37.984375 101.523438 37.347656 C 101.703125 37.300781 101.910156 37.308594 102.078125 37.371094 C 102.242188 37.433594 102.34375 37.539062 102.347656 37.652344 L 102.347656 37.828125 C 102.34375 38.273438 101.839844 38.667969 101.09375 38.800781 C 98.324219 39.304688 95.515625 39.363281 92.675781 38.980469 C 89.632812 38.566406 87.601562 38.332031 86.574219 38.277344 C 84.605469 38.175781 82.859375 38.460938 81.332031 39.136719 C 81.179688 39.207031 80.972656 39.21875 80.796875 39.171875 C 80.621094 39.121094 80.511719 39.023438 80.507812 38.910156 L 80.460938 27.523438 C 80.457031 27.21875 80.847656 26.957031 81.378906 26.910156 C 81.910156 26.863281 82.425781 27.039062 82.589844 27.332031 C 82.59375 27.335938 82.59375 27.550781 82.585938 27.96875 C 82.523438 31.402344 82.511719 34.492188 82.550781 37.246094 C 82.550781 37.285156 82.585938 37.320312 82.644531 37.34375 C 82.703125 37.367188 82.777344 37.371094 82.839844 37.355469 Z M 82.839844 37.355469 "/>
<path style=" stroke:none;fill-rule:nonzero;fill:rgb(19.215687%,53.333336%,34.901962%);fill-opacity:1;" d="M 116.042969 32.96875 C 116.375 33.167969 117.171875 33.214844 117.648438 33.566406 C 120.5625 35.722656 119.285156 38.472656 114.292969 39.027344 C 112.742188 39.195312 110.097656 39.226562 106.363281 39.125 C 106.101562 39.117188 105.890625 38.992188 105.890625 38.84375 L 105.890625 27.175781 C 105.890625 27.066406 106.042969 26.980469 106.234375 26.976562 C 110.652344 26.925781 117.714844 26.3125 118.578125 29.527344 C 118.953125 30.917969 118.128906 31.96875 116.109375 32.679688 C 116.023438 32.707031 115.964844 32.757812 115.953125 32.816406 C 115.941406 32.871094 115.972656 32.929688 116.042969 32.96875 Z M 107.917969 28.191406 L 107.867188 32.105469 C 107.867188 32.1875 107.984375 32.25 108.125 32.25 L 112.699219 32.269531 C 114.917969 32.277344 116.726562 31.414062 116.742188 30.339844 L 116.742188 30.027344 C 116.753906 28.949219 114.964844 28.070312 112.746094 28.0625 L 108.171875 28.046875 C 108.03125 28.046875 107.917969 28.109375 107.917969 28.191406 Z M 107.921875 33.527344 L 107.804688 37.902344 C 107.804688 37.976562 107.90625 38.035156 108.035156 38.035156 L 112.8125 38.082031 C 113.96875 38.09375 115.085938 37.867188 115.914062 37.453125 C 116.746094 37.039062 117.21875 36.472656 117.234375 35.878906 L 117.234375 35.710938 C 117.269531 34.476562 115.347656 33.457031 112.941406 33.433594 L 108.167969 33.390625 C 108.101562 33.390625 108.039062 33.402344 107.996094 33.429688 C 107.949219 33.453125 107.921875 33.488281 107.921875 33.527344 Z M 107.921875 33.527344 "/>
<path style=" stroke:none;fill-rule:nonzero;fill:rgb(19.215687%,53.333336%,34.901962%);fill-opacity:1;" d="M 11.707031 27.011719 L 13.421875 27.011719 L 5.546875 32.605469 C 5.488281 32.644531 5.464844 32.695312 5.484375 32.746094 C 5.503906 32.796875 5.558594 32.839844 5.640625 32.863281 L 7.410156 33.367188 C 7.480469 33.386719 7.546875 33.414062 7.605469 33.449219 C 9.441406 34.464844 10.90625 35.328125 12.007812 36.027344 C 14.226562 37.449219 16.261719 38.050781 19.367188 38.140625 C 22.054688 38.21875 24.929688 38.234375 27.992188 38.191406 C 28.070312 38.1875 28.140625 38.203125 28.195312 38.234375 C 28.25 38.265625 28.28125 38.304688 28.28125 38.347656 L 28.28125 39.023438 C 28.28125 39.117188 28.152344 39.195312 27.988281 39.199219 C 25.878906 39.261719 23.316406 39.292969 20.296875 39.292969 C 17.5 39.296875 14.316406 38.832031 12.195312 37.707031 C 11.03125 37.085938 10.207031 36.808594 9.09375 36.011719 C 7.910156 35.164062 6.335938 34.5 4.371094 34.015625 C 3.957031 33.914062 3.625 33.863281 3.375 33.863281 C 3.179688 33.863281 3.019531 33.957031 3.019531 34.066406 L 3.019531 39.058594 C 3.019531 39.183594 2.84375 39.285156 2.621094 39.285156 L 1.375 39.285156 C 1.121094 39.285156 0.917969 39.171875 0.917969 39.03125 L 0.917969 27.410156 C 0.917969 27.203125 1.214844 27.035156 1.582031 27.035156 L 2.179688 27.035156 C 2.5625 27.035156 2.871094 27.210938 2.871094 27.429688 L 2.871094 32.382812 C 2.867188 32.445312 2.9375 32.5 3.039062 32.519531 C 3.140625 32.542969 3.253906 32.523438 3.320312 32.476562 L 11.105469 27.171875 C 11.253906 27.070312 11.472656 27.011719 11.707031 27.011719 Z M 11.707031 27.011719 "/>
<path style=" stroke:none;fill-rule:nonzero;fill:rgb(19.215687%,53.333336%,34.901962%);fill-opacity:1;" d="M 28.25 36.519531 L 26.496094 36.519531 C 26.238281 36.519531 26 36.453125 25.84375 36.335938 C 23.851562 34.847656 23.574219 32.304688 18.78125 32.453125 C 18.574219 32.457031 18.410156 32.558594 18.410156 32.675781 L 18.410156 35.957031 C 18.410156 36.1875 18.085938 36.371094 17.683594 36.371094 L 17.109375 36.371094 C 16.84375 36.371094 16.625 36.246094 16.625 36.097656 L 16.625 27.132812 C 16.625 27.089844 16.65625 27.050781 16.710938 27.019531 C 16.765625 26.992188 16.839844 26.976562 16.914062 26.976562 L 22.597656 27.125 C 22.800781 27.128906 23.003906 27.152344 23.195312 27.195312 C 24.269531 27.433594 25.121094 27.898438 25.753906 28.585938 C 26.761719 29.6875 26.445312 30.746094 24.800781 31.769531 C 24.453125 31.980469 24.023438 32.136719 23.503906 32.230469 C 23.414062 32.246094 23.351562 32.292969 23.339844 32.34375 C 23.328125 32.394531 23.371094 32.449219 23.449219 32.476562 C 25.164062 33.078125 25.917969 34.375 26.714844 35.433594 C 26.785156 35.515625 26.878906 35.59375 27.003906 35.664062 L 28.347656 36.386719 Z M 18.449219 27.984375 L 18.4375 31.460938 L 21.332031 31.542969 C 23.121094 31.546875 24.574219 30.757812 24.578125 29.78125 L 24.578125 29.679688 C 24.582031 28.703125 23.132812 27.910156 21.34375 27.90625 L 18.589844 27.902344 Z M 18.449219 27.984375 "/>
<path style=" stroke:none;fill-rule:nonzero;fill:rgb(19.215687%,53.333336%,34.901962%);fill-opacity:1;" d="M 74.839844 31.386719 L 74.839844 32.082031 C 74.839844 32.179688 74.707031 32.253906 74.539062 32.253906 L 67.683594 32.253906 C 67.515625 32.253906 67.378906 32.332031 67.378906 32.429688 L 67.378906 35.042969 C 67.378906 35.136719 67.515625 35.214844 67.683594 35.214844 L 76.574219 35.214844 C 76.742188 35.214844 76.878906 35.292969 76.878906 35.386719 L 76.878906 36.097656 C 76.878906 36.191406 76.742188 36.269531 76.574219 36.269531 L 65.617188 36.269531 C 65.449219 36.269531 65.3125 36.191406 65.3125 36.097656 L 65.3125 27.195312 C 65.3125 27.097656 65.449219 27.023438 65.617188 27.023438 L 76.542969 27.023438 C 76.710938 27.023438 76.847656 27.097656 76.847656 27.195312 L 76.847656 27.949219 C 76.847656 28.046875 76.710938 28.125 76.542969 28.125 L 67.671875 28.125 C 67.503906 28.125 67.367188 28.199219 67.367188 28.296875 L 67.367188 31.042969 C 67.367188 31.136719 67.503906 31.214844 67.671875 31.214844 L 74.539062 31.214844 C 74.707031 31.214844 74.839844 31.292969 74.839844 31.386719 Z M 74.839844 31.386719 "/>
<path style=" stroke:none;fill-rule:nonzero;fill:rgb(19.215687%,53.333336%,34.901962%);fill-opacity:1;" d="M 95.121094 33.414062 C 93.570312 33.414062 92.636719 33.421875 92.316406 33.429688 C 92.078125 33.4375 91.875 33.527344 91.796875 33.652344 L 90.328125 35.957031 C 90.253906 36.082031 90.042969 36.167969 89.808594 36.167969 L 88.714844 36.167969 C 88.585938 36.167969 88.460938 36.132812 88.382812 36.070312 C 88.308594 36.007812 88.289062 35.929688 88.335938 35.859375 L 93.863281 27.179688 C 93.921875 27.085938 94.074219 27.019531 94.25 27.011719 C 94.492188 27 94.769531 26.996094 95.082031 26.996094 C 95.390625 26.992188 95.667969 26.996094 95.910156 27.007812 C 96.089844 27.015625 96.242188 27.082031 96.304688 27.179688 L 101.933594 35.835938 C 101.980469 35.90625 101.960938 35.984375 101.886719 36.042969 C 101.8125 36.105469 101.6875 36.144531 101.558594 36.144531 L 100.464844 36.148438 C 100.230469 36.148438 100.023438 36.0625 99.945312 35.941406 L 98.441406 33.636719 C 98.363281 33.511719 98.160156 33.429688 97.921875 33.421875 C 97.609375 33.414062 96.675781 33.410156 95.121094 33.414062 Z M 92.585938 32.34375 C 92.5625 32.375 92.570312 32.410156 92.605469 32.441406 C 92.640625 32.46875 92.699219 32.484375 92.757812 32.484375 L 97.46875 32.476562 C 97.53125 32.476562 97.585938 32.457031 97.621094 32.429688 C 97.65625 32.402344 97.664062 32.367188 97.640625 32.332031 L 95.257812 28.996094 C 95.230469 28.957031 95.160156 28.933594 95.085938 28.933594 C 95.011719 28.9375 94.949219 28.960938 94.917969 29 Z M 92.585938 32.34375 "/>
<path style=" stroke:none;fill-rule:nonzero;fill:rgb(19.215687%,53.333336%,34.901962%);fill-opacity:1;" d="M 37.417969 37.679688 L 38.257812 38.132812 C 38.421875 38.222656 38.425781 38.367188 38.273438 38.460938 L 37.402344 38.980469 C 37.246094 39.074219 36.988281 39.078125 36.828125 38.988281 L 35.988281 38.535156 C 35.824219 38.449219 35.816406 38.304688 35.972656 38.210938 L 36.84375 37.691406 C 36.996094 37.597656 37.253906 37.59375 37.417969 37.679688 Z M 37.417969 37.679688 "/>
<path style=" stroke:none;fill-rule:nonzero;fill:rgb(19.215687%,53.333336%,34.901962%);fill-opacity:1;" d="M 70.09375 38.160156 L 70.90625 37.75 C 71.09375 37.65625 71.378906 37.664062 71.546875 37.769531 L 72.285156 38.242188 C 72.449219 38.347656 72.433594 38.511719 72.246094 38.605469 L 71.433594 39.015625 C 71.246094 39.109375 70.960938 39.101562 70.792969 38.992188 L 70.054688 38.523438 C 69.890625 38.417969 69.90625 38.253906 70.09375 38.160156 Z M 70.09375 38.160156 "/>
</g>
</svg>
